<svg width="202" height="40" viewBox="0 0 202 40" fill="none" xmlns="http://www.w3.org/2000/svg">
<g clip-path="url(#clip0_9001_9532)">
<rect width="40" height="40" rx="15" fill="#FFCC00"/>
<path fill-rule="evenodd" clip-rule="evenodd" d="M41 4.70508C39.8254 4.82571 38.9327 5.03706 38.0493 6.07425C35.9008 6.33947 34.857 7.51807 34.7284 9.45346C33.1164 10.5993 32.5921 12.3666 33.1553 14.7553C31.2611 15.9415 30.5031 17.4116 31.4057 19.2968L31.4312 23.6736C31.5741 24.2748 31.8866 24.8549 32.3396 25.4174C30.9996 27.5731 31.6016 29.4958 34.1457 30.661C34.155 34.3175 36.1943 35.3564 39.1563 35.2055C39.5459 35.7265 40.1591 36.1257 40.976 36.4138L41 4.70508Z" fill="#01CCFF" stroke="#01CCFF" stroke-width="0.366139" stroke-linecap="round" stroke-linejoin="round"/>
<path d="M41 4.70508C39.8254 4.82571 38.9327 5.03706 38.0493 6.07425C35.9008 6.33947 34.857 7.51807 34.7284 9.45346C33.1164 10.5993 32.5921 12.3666 33.1553 14.7553C31.2611 15.9415 30.5031 17.4116 31.4057 19.2968L31.4312 23.6736C31.5741 24.2748 31.8866 24.8549 32.3396 25.4174C30.9996 27.5731 31.6016 29.4958 34.1457 30.661C34.155 34.3175 36.1943 35.3564 39.1563 35.2055C39.5459 35.7265 40.1591 36.1257 40.976 36.4138" stroke="#212121" stroke-width="0.366139" stroke-linecap="round" stroke-linejoin="round"/>
<path d="M40.9951 10.998C38.1973 11.3573 36.9143 12.979 37.8454 16.4456" stroke="#212121" stroke-width="0.366139" stroke-linecap="round" stroke-linejoin="round"/>
<path d="M37.5589 14.0635C34.9226 14.4646 33.393 15.6458 33.2427 17.9891" stroke="#212121" stroke-width="0.366139" stroke-linecap="round" stroke-linejoin="round"/>
<path d="M39.9923 11.2005C39.6698 10.6573 39.8228 9.98783 40.3943 9.23535" stroke="#212121" stroke-width="0.366139" stroke-linecap="round" stroke-linejoin="round"/>
<path d="M40.0739 8.31738C38.9837 9.22738 38.5406 10.2952 39.0431 11.5936" stroke="#212121" stroke-width="0.366139" stroke-linecap="round" stroke-linejoin="round"/>
<path d="M36.6802 12.4541C36.2637 13.0554 36.2356 13.6568 36.596 14.2581" stroke="#212121" stroke-width="0.366139" stroke-linecap="round" stroke-linejoin="round"/>
<path d="M36.2577 11.085C35.1916 11.9638 34.7537 13.094 35.4357 14.6721" stroke="#212121" stroke-width="0.366139" stroke-linecap="round" stroke-linejoin="round"/>
<path d="M36.316 10.0508C34.2737 10.9524 33.6197 12.6684 34.4905 15.2789" stroke="#212121" stroke-width="0.366139" stroke-linecap="round" stroke-linejoin="round"/>
<path d="M40.9868 22.0237C39.1203 20.8828 38.5319 19.5525 39.8117 17.9453" stroke="#212121" stroke-width="0.366139" stroke-linecap="round" stroke-linejoin="round"/>
<path d="M40.9859 23.2911C37.9075 21.5807 36.82 19.3989 39.6807 17.1299" stroke="#212121" stroke-width="0.366139" stroke-linecap="round" stroke-linejoin="round"/>
<path d="M41 32.2928C35.7147 30.3313 35.5079 26.8453 40.205 24.3691" stroke="#212121" stroke-width="0.366139" stroke-linecap="round" stroke-linejoin="round"/>
<path d="M37.0881 16.6777C33.7874 19.6167 32.8533 22.7775 37.5623 26.4294" stroke="#212121" stroke-width="0.366139" stroke-linecap="round" stroke-linejoin="round"/>
<path d="M38.3964 25.565C36.3871 24.302 35.4654 22.7282 35.6314 20.8438" stroke="#212121" stroke-width="0.366139" stroke-linecap="round" stroke-linejoin="round"/>
<path d="M39.0218 25.0839C37.7847 24.3673 37.1206 23.1724 36.5054 22.0674" stroke="#212121" stroke-width="0.366139" stroke-linecap="round" stroke-linejoin="round"/>
<path d="M38.2241 22.8682C38.5131 23.4601 39.0107 23.9 39.7951 24.5941" stroke="#212121" stroke-width="0.366139" stroke-linecap="round" stroke-linejoin="round"/>
<path d="M38.0057 27.457C37.7156 29.1084 39.0165 30.1563 40.9802 30.9528" stroke="#212121" stroke-width="0.366139" stroke-linecap="round" stroke-linejoin="round"/>
<path d="M38.967 27.9375C38.9173 28.789 39.6323 29.4068 40.981 29.8311" stroke="#212121" stroke-width="0.366139" stroke-linecap="round" stroke-linejoin="round"/>
<path d="M35.8645 26.6123C34.5935 26.53 33.1733 26.2921 32.3396 25.418" stroke="#212121" stroke-width="0.366139" stroke-linecap="round" stroke-linejoin="round"/>
<path d="M35.5293 28.418C34.8451 27.8583 34.6244 27.2523 34.9862 26.5264" stroke="#212121" stroke-width="0.366139" stroke-linecap="round" stroke-linejoin="round"/>
<path d="M34.1211 26.3613C33.634 27.4741 33.9433 28.4315 35.0488 29.2336" stroke="#212121" stroke-width="0.366139" stroke-linecap="round" stroke-linejoin="round"/>
<path d="M34.612 29.7875C33.0469 28.7792 32.4913 27.7977 33.3529 26.1025" stroke="#212121" stroke-width="0.366139" stroke-linecap="round" stroke-linejoin="round"/>
<path d="M34.1458 30.6611C35.5356 31.0034 36.7002 30.8444 37.9493 30.541" stroke="#212121" stroke-width="0.366139" stroke-linecap="round" stroke-linejoin="round"/>
<path d="M38.6903 32.9482C38.5871 33.9506 38.7096 34.6386 39.1564 35.2059" stroke="#212121" stroke-width="0.366139" stroke-linecap="round" stroke-linejoin="round"/>
<path d="M36.5344 32.5986C37.1274 33.2394 37.7143 33.7059 38.657 33.662" stroke="#212121" stroke-width="0.366139" stroke-linecap="round" stroke-linejoin="round"/>
<path d="M35.4421 32.3652C36.2391 33.8722 37.3467 34.5635 38.7652 34.4392" stroke="#212121" stroke-width="0.366139" stroke-linecap="round" stroke-linejoin="round"/>
<path fill-rule="evenodd" clip-rule="evenodd" d="M25.709 19.0067H20.7745L20.0462 19.8515H18.5571V16.7617C14.5035 13.2109 20.1417 10.6621 21.8855 6.32879L25.709 19.0067ZM25.0859 21.8947L25.5007 22.5852L21.8855 34.5726C20.1417 30.2392 14.5035 27.6905 18.5571 24.1397V21.0499H20.0462L20.7745 21.8947H25.0859ZM26.1215 23.0337C26.9549 23.4532 26.0489 24.1823 29.2517 23.5823L29.7178 24.0775C31.251 23.0447 32.9264 24.2005 35.5732 24.631C34.0085 22.7241 33.8167 20.7116 35.2818 18.5717C33.5921 18.5522 32.0967 18.7756 31.0287 19.533H28.7856C28.15 19.1455 27.3882 18.9157 26.442 18.9164L22.2404 5.17004C22.2731 5.01345 22.3004 4.85464 22.3211 4.69337C22.8698 4.96536 23.3699 5.01373 23.7987 4.70496C24.3894 4.27951 25.0091 4.80049 26.4808 4.57941C25.1411 4.66008 24.4539 4.02908 23.7672 4.32353C23.1726 4.57848 22.7352 4.41899 22.3688 4.00492C22.3738 3.66281 22.3517 3.31076 22.2947 2.94669C21.9671 0.851923 19.215 2.78903 21.3263 3.4695C22.2778 9.06493 11.5932 12.5236 16.3174 17.3482V19.8515H11.4816C11.6055 19.4718 11.8289 19.1168 12.1079 18.7756C10.7606 19.3341 9.15849 19.8924 7.34497 20.4507C9.15849 21.0089 10.7606 21.5673 12.1079 22.1257C11.8289 21.7846 11.6055 21.4296 11.4816 21.0499H16.3174V23.5531C11.5932 28.3777 22.2778 31.8365 21.3263 37.4319C19.215 38.1123 21.9671 40.0494 22.2947 37.9547C22.3517 37.5906 22.3738 37.2386 22.3688 36.8964C22.7352 36.4824 23.1726 36.3229 23.7672 36.5778C24.4539 36.8723 25.1411 36.2413 26.4808 36.322C25.0091 36.1009 24.3894 36.6218 23.7987 36.1964C23.3699 35.8876 22.8698 35.936 22.3211 36.208C22.3004 36.0467 22.2731 35.8879 22.2404 35.7313L26.1215 23.0337Z" fill="#EA080A" stroke="#212121" stroke-width="0.256297" stroke-linejoin="round"/>
<path fill-rule="evenodd" clip-rule="evenodd" d="M25.8433 19.8975C25.766 20.1709 26.467 20.2179 26.7172 20.2179C27.2897 20.2179 27.2496 20.4404 27.5772 20.8522C28.396 21.8815 28.626 21.4703 28.8651 21.7911C28.6191 22.0006 28.0369 21.3698 28.0294 22.1331C28.0179 23.2926 29.4226 23.5669 29.5424 22.2443C29.6551 20.9999 29.4147 20.7597 28.669 20.014C28.348 19.693 26.0525 19.1574 25.8433 19.8975Z" fill="#F5F6F7"/>
<path fill-rule="evenodd" clip-rule="evenodd" d="M25.9036 20.7915C25.3345 20.8643 25.6368 21.4046 26.115 21.2781C26.8152 21.0928 27.4225 20.597 25.9036 20.7915Z" fill="#F5F6F7"/>
<path fill-rule="evenodd" clip-rule="evenodd" d="M26.1046 21.6903C25.7115 21.8632 26.0014 22.3346 26.4937 22.0911C27.32 21.6825 27.5453 21.0563 26.1046 21.6903Z" fill="#F5F6F7"/>
<path fill-rule="evenodd" clip-rule="evenodd" d="M26.6351 22.3708C26.3161 22.5669 26.5709 23.0107 27.0286 22.7072C27.7289 22.2428 27.6264 21.7615 26.6351 22.3708Z" fill="#F5F6F7"/>
<path fill-rule="evenodd" clip-rule="evenodd" d="M27.2223 22.9126C26.9174 23.1706 27.2987 23.5229 27.6222 23.1347C28.0255 22.6506 27.5571 22.6292 27.2223 22.9126Z" fill="#F5F6F7"/>
<path fill-rule="evenodd" clip-rule="evenodd" d="M33.3227 20.9643C33.1622 19.8819 33.6466 20.1667 33.6937 19.6621C31.6382 19.837 31.3529 20.3103 32.2592 21.7035C32.4292 20.9653 31.8264 20.7846 32.536 20.4217C32.5423 20.7282 32.6492 21.0975 32.8493 21.4233C32.9635 21.0289 32.7423 20.451 33.0314 20.2649C33.0869 20.5296 33.1506 20.7973 33.3227 20.9643Z" fill="#F5F6F7"/>
<path fill-rule="evenodd" clip-rule="evenodd" d="M30.6556 22.2375C30.6318 21.6498 30.6793 21.0912 30.8881 20.8717C30.9401 21.2978 30.988 21.6793 31.2841 21.9219C31.2599 21.193 31.2367 20.819 31.4112 20.6683C30.997 20.3793 30.7819 20.2675 30.4747 20.25C30.3033 21.1683 30.3844 21.8816 30.6556 22.2375Z" fill="#F5F6F7"/>
<path fill-rule="evenodd" clip-rule="evenodd" d="M20.7555 20.1738L20.5169 20.4506H25.0814L25.32 20.1738H20.7555Z" fill="#F5F6F7" stroke="#F5F6F7" stroke-width="0.219684" stroke-linecap="round" stroke-linejoin="round"/>
<path d="M25.6212 19.8242L25.3198 20.1738M21.0567 19.8242L20.7553 20.1738M21.7087 19.8242L21.4074 20.1738M22.3608 19.8242L22.0595 20.1738M23.0129 19.8242L22.7115 20.1738M23.6649 19.8242L23.3636 20.1738M24.317 19.8242L24.0157 20.1738M24.9691 19.8242L24.6678 20.1738" stroke="#F5F6F7" stroke-width="0.219684" stroke-linecap="round" stroke-linejoin="round"/>
<path fill-rule="evenodd" clip-rule="evenodd" d="M10.3995 7.46969C9.18186 7.7703 8.26606 8.20523 7.58063 8.75602V5.11368C8.26606 5.66447 9.18186 6.0994 10.3995 6.39997C10.099 5.18228 9.66404 4.26648 9.11325 3.58105H12.7556C12.2048 4.26648 11.7699 5.18228 11.4693 6.39997C12.687 6.0994 13.6028 5.66447 14.2882 5.11368V8.75602C13.6028 8.20523 12.687 7.7703 11.4693 7.46969C11.7699 8.68741 12.2048 9.60318 12.7556 10.2886H9.11325C9.66404 9.60318 10.099 8.68741 10.3995 7.46969Z" fill="#F50508" stroke="#212121" stroke-width="0.257646" stroke-linecap="round" stroke-linejoin="round"/>
<path d="M10.9344 3.49312C11.3647 3.49312 11.7136 3.14423 11.7136 2.71385C11.7136 2.28346 11.3647 1.93457 10.9344 1.93457C10.504 1.93457 10.1551 2.28346 10.1551 2.71385C10.1551 3.14423 10.504 3.49312 10.9344 3.49312Z" fill="#F50508" stroke="#212121" stroke-width="0.257646" stroke-linecap="round" stroke-linejoin="round"/>
<path d="M7.49294 6.93459C7.49294 6.50421 7.14405 6.15531 6.71367 6.15531C6.28328 6.15531 5.93439 6.50421 5.93439 6.93459C5.93439 7.36497 6.28328 7.71387 6.71367 7.71387C7.14405 7.71387 7.49294 7.36497 7.49294 6.93459Z" fill="#F50508" stroke="#212121" stroke-width="0.247041" stroke-linecap="round" stroke-linejoin="round"/>
<path d="M14.376 6.93455C14.376 7.36493 14.7248 7.71383 15.1552 7.71383C15.5856 7.71383 15.9345 7.36493 15.9345 6.93455C15.9345 6.50417 15.5856 6.15527 15.1552 6.15527C14.7248 6.15527 14.376 6.50417 14.376 6.93455Z" fill="#F50508" stroke="#212121" stroke-width="0.247041" stroke-linecap="round" stroke-linejoin="round"/>
<path d="M10.9344 11.9345C11.3647 11.9345 11.7136 11.5856 11.7136 11.1553C11.7136 10.7249 11.3647 10.376 10.9344 10.376C10.504 10.376 10.1551 10.7249 10.1551 11.1553C10.1551 11.5856 10.504 11.9345 10.9344 11.9345Z" fill="#F50508" stroke="#212121" stroke-width="0.257646" stroke-linecap="round" stroke-linejoin="round"/>
</g>
<path d="M54.128 15.128C52.9653 15.128 51.9733 14.8827 51.152 14.392C50.3413 13.9013 49.7173 13.2187 49.28 12.344C48.8533 11.4693 48.64 10.472 48.64 9.352C48.64 8.21067 48.8587 7.208 49.296 6.344C49.7333 5.46933 50.3627 4.78667 51.184 4.296C52.0053 3.79467 52.9973 3.544 54.16 3.544C55.3227 3.544 56.3093 3.78933 57.12 4.28C57.9413 4.77067 58.5707 5.45333 59.008 6.328C59.4453 7.192 59.664 8.18933 59.664 9.32C59.664 10.44 59.4453 11.4373 59.008 12.312C58.5813 13.1867 57.952 13.8747 57.12 14.376C56.2987 14.8773 55.3013 15.128 54.128 15.128ZM54.16 13.272C54.9707 13.272 55.632 13.0853 56.144 12.712C56.656 12.3387 57.0293 11.8533 57.264 11.256C57.5093 10.6587 57.632 10.024 57.632 9.352C57.632 8.84 57.5627 8.34933 57.424 7.88C57.296 7.41067 57.088 6.98933 56.8 6.616C56.5227 6.24267 56.1653 5.94933 55.728 5.736C55.2907 5.512 54.768 5.4 54.16 5.4C53.36 5.4 52.6987 5.58667 52.176 5.96C51.664 6.33333 51.2853 6.81867 51.04 7.416C50.7947 8.01333 50.672 8.65867 50.672 9.352C50.672 10.0347 50.7947 10.6747 51.04 11.272C51.2853 11.8693 51.664 12.3547 52.176 12.728C52.6987 13.0907 53.36 13.272 54.16 13.272ZM60.5209 15.016V13.256C60.7555 13.256 60.9582 13.2027 61.1289 13.096C61.2995 12.9787 61.4435 12.824 61.5609 12.632C61.6995 12.3973 61.8009 12.0987 61.8649 11.736C61.9289 11.3733 61.9715 11.0053 61.9929 10.632C62.0249 10.152 62.0462 9.672 62.0569 9.192C62.0782 8.70133 62.0942 8.232 62.1049 7.784C62.1262 7.32533 62.1369 6.92 62.1369 6.568H68.4729V15H66.5209V8.296H63.9449C63.9342 8.648 63.9182 9.02133 63.8969 9.416C63.8862 9.81067 63.8702 10.2107 63.8489 10.616C63.8275 11.0107 63.7902 11.3947 63.7369 11.768C63.6942 12.184 63.6195 12.6053 63.5129 13.032C63.4169 13.4587 63.2462 13.8427 63.0009 14.184C62.7449 14.504 62.4249 14.7227 62.0409 14.84C61.6675 14.9573 61.1609 15.016 60.5209 15.016ZM70.3659 15V6.568H72.3179V12.056C72.3819 11.9387 72.4619 11.8107 72.5579 11.672C72.6645 11.5333 72.7552 11.4213 72.8299 11.336L76.4459 6.568H78.1739V15H76.2379V9.576C76.1525 9.71467 76.0619 9.848 75.9659 9.976C75.8805 10.0933 75.7952 10.2053 75.7099 10.312L72.1419 15H70.3659ZM80.069 15V6.568H82.453L84.917 10.408L87.333 6.568H89.685V15H87.733V9.048L85.173 13.144H84.597L82.005 9.032V15H80.069ZM91.569 15V6.568H99.009V15H97.057V8.296H93.521V15H91.569ZM100.897 15V6.568H102.849V12.056C102.913 11.9387 102.993 11.8107 103.089 11.672C103.196 11.5333 103.286 11.4213 103.361 11.336L106.977 6.568H108.705V15H106.769V9.576C106.684 9.71467 106.593 9.848 106.497 9.976C106.412 10.0933 106.326 10.2053 106.241 10.312L102.673 15H100.897ZM113.224 15.112C112.851 15.112 112.488 15.0587 112.136 14.952C111.795 14.8453 111.486 14.6907 111.208 14.488C110.931 14.2747 110.712 14.0133 110.552 13.704C110.392 13.384 110.312 13.0107 110.312 12.584C110.312 12.04 110.419 11.5973 110.632 11.256C110.846 10.904 111.134 10.6373 111.496 10.456C111.87 10.2747 112.291 10.152 112.76 10.088C113.23 10.0133 113.72 9.976 114.232 9.976H115.88C115.88 9.60267 115.822 9.28267 115.704 9.016C115.587 8.73867 115.4 8.52 115.144 8.36C114.899 8.2 114.579 8.12 114.184 8.12C113.928 8.12 113.688 8.152 113.464 8.216C113.251 8.26933 113.064 8.36 112.904 8.488C112.755 8.60533 112.648 8.76 112.584 8.952H110.584C110.659 8.51467 110.808 8.14133 111.032 7.832C111.267 7.512 111.55 7.25067 111.88 7.048C112.222 6.84533 112.595 6.696 113 6.6C113.406 6.49333 113.816 6.44 114.232 6.44C115.054 6.44 115.72 6.6 116.232 6.92C116.755 7.24 117.139 7.69867 117.384 8.296C117.63 8.89333 117.752 9.61333 117.752 10.456V15H116.024L115.976 13.976C115.742 14.2747 115.47 14.5093 115.16 14.68C114.862 14.84 114.547 14.952 114.216 15.016C113.886 15.08 113.555 15.112 113.224 15.112ZM113.672 13.528C114.11 13.528 114.494 13.448 114.824 13.288C115.155 13.128 115.416 12.904 115.608 12.616C115.8 12.328 115.896 11.992 115.896 11.608V11.352H114.376C114.099 11.352 113.832 11.3627 113.576 11.384C113.32 11.3947 113.091 11.4373 112.888 11.512C112.696 11.576 112.542 11.6773 112.424 11.816C112.307 11.9547 112.248 12.152 112.248 12.408C112.248 12.6533 112.312 12.8613 112.44 13.032C112.568 13.192 112.739 13.3147 112.952 13.4C113.176 13.4853 113.416 13.528 113.672 13.528ZM118.928 17.448V13.272C119.205 13.272 119.435 13.2027 119.616 13.064C119.797 12.9147 119.941 12.7173 120.048 12.472C120.165 12.2267 120.256 11.96 120.32 11.672C120.384 11.3733 120.432 11.0747 120.464 10.776C120.528 10.296 120.565 9.80533 120.576 9.304C120.597 8.792 120.608 8.35467 120.608 7.992C120.619 7.75733 120.624 7.52267 120.624 7.288C120.624 7.04267 120.624 6.80267 120.624 6.568H127.136V13.272H128.224V17.448H126.304V15H120.848V17.448H118.928ZM121.712 13.272H125.184V8.296H122.384C122.373 8.69067 122.363 9.11733 122.352 9.576C122.341 10.024 122.32 10.4507 122.288 10.856C122.277 11.0907 122.251 11.352 122.208 11.64C122.176 11.928 122.123 12.2107 122.048 12.488C121.973 12.7653 121.861 13.0267 121.712 13.272ZM129.428 15V6.568H131.396V9.448H132.74C133.22 9.448 133.663 9.49067 134.068 9.576C134.484 9.66133 134.842 9.80533 135.14 10.008C135.439 10.2107 135.668 10.488 135.828 10.84C135.999 11.1813 136.084 11.6133 136.084 12.136C136.084 12.6587 135.988 13.1013 135.796 13.464C135.615 13.8267 135.364 14.1253 135.044 14.36C134.724 14.584 134.351 14.7493 133.924 14.856C133.508 14.952 133.066 15 132.596 15H129.428ZM131.396 13.304H131.972C132.271 13.304 132.548 13.2933 132.804 13.272C133.071 13.2507 133.3 13.208 133.492 13.144C133.695 13.0693 133.855 12.9573 133.972 12.808C134.09 12.6587 134.148 12.456 134.148 12.2C134.148 11.9547 134.1 11.7627 134.004 11.624C133.908 11.4747 133.78 11.3627 133.62 11.288C133.471 11.2027 133.3 11.1493 133.108 11.128C132.916 11.1067 132.714 11.096 132.5 11.096H131.396V13.304ZM137.156 15V6.568H139.108V15H137.156ZM49.264 35V23.688H51.264V28.552H52.896L56.08 23.688H58.352L54.576 29.224L58.368 35H56.032L52.992 30.376H51.264V35H49.264ZM59.4596 35V26.568H61.4116V32.056C61.4756 31.9387 61.5556 31.8107 61.6516 31.672C61.7583 31.5333 61.849 31.4213 61.9236 31.336L65.5396 26.568H67.2676V35H65.3316V29.576C65.2463 29.7147 65.1556 29.848 65.0596 29.976C64.9743 30.0933 64.889 30.2053 64.8036 30.312L61.2356 35H59.4596ZM69.1628 38.104V26.568H70.9868L71.0828 27.72C71.4134 27.272 71.8188 26.9467 72.2988 26.744C72.7788 26.5413 73.2854 26.44 73.8188 26.44C74.6294 26.44 75.3068 26.632 75.8508 27.016C76.3948 27.4 76.8001 27.9227 77.0668 28.584C77.3334 29.2347 77.4668 29.9707 77.4668 30.792C77.4668 31.6133 77.3281 32.3493 77.0508 33C76.7841 33.6507 76.3681 34.168 75.8028 34.552C75.2481 34.9253 74.5334 35.112 73.6588 35.112C73.2534 35.112 72.8908 35.0693 72.5708 34.984C72.2508 34.888 71.9681 34.7653 71.7228 34.616C71.4881 34.456 71.2854 34.2853 71.1148 34.104V38.104H69.1628ZM73.3868 33.352C73.9308 33.352 74.3574 33.2347 74.6668 33C74.9761 32.7547 75.2001 32.44 75.3388 32.056C75.4774 31.6613 75.5468 31.2453 75.5468 30.808C75.5468 30.3493 75.4721 29.9227 75.3228 29.528C75.1841 29.1333 74.9548 28.8133 74.6348 28.568C74.3148 28.3227 73.8881 28.2 73.3548 28.2C72.8641 28.2 72.4481 28.3227 72.1068 28.568C71.7761 28.8027 71.5254 29.1173 71.3548 29.512C71.1841 29.9067 71.0988 30.3333 71.0988 30.792C71.0988 31.2613 71.1788 31.6933 71.3388 32.088C71.4988 32.472 71.7494 32.7813 72.0908 33.016C72.4321 33.24 72.8641 33.352 73.3868 33.352ZM82.8313 35.112C81.9673 35.112 81.2206 34.936 80.5913 34.584C79.9726 34.232 79.4926 33.7307 79.1513 33.08C78.8206 32.4293 78.6553 31.6667 78.6553 30.792C78.6553 29.9067 78.8206 29.144 79.1513 28.504C79.4926 27.8533 79.9726 27.3467 80.5913 26.984C81.2206 26.6213 81.9673 26.44 82.8313 26.44C83.6846 26.44 84.4206 26.6213 85.0393 26.984C85.6579 27.3467 86.1326 27.8587 86.4633 28.52C86.7939 29.1707 86.9593 29.9387 86.9593 30.824C86.9593 31.688 86.7939 32.4453 86.4633 33.096C86.1433 33.736 85.6739 34.232 85.0553 34.584C84.4366 34.936 83.6953 35.112 82.8313 35.112ZM82.8153 33.336C83.3486 33.336 83.7753 33.2187 84.0953 32.984C84.4259 32.7493 84.6659 32.44 84.8153 32.056C84.9646 31.672 85.0393 31.256 85.0393 30.808C85.0393 30.36 84.9646 29.9387 84.8153 29.544C84.6659 29.1493 84.4259 28.8347 84.0953 28.6C83.7753 28.3547 83.3486 28.232 82.8153 28.232C82.2819 28.232 81.8499 28.3547 81.5193 28.6C81.1886 28.8347 80.9486 29.1493 80.7993 29.544C80.6499 29.9387 80.5753 30.36 80.5753 30.808C80.5753 31.2667 80.6499 31.688 80.7993 32.072C80.9486 32.456 81.1886 32.7653 81.5193 33C81.8499 33.224 82.2819 33.336 82.8153 33.336ZM88.5221 35V26.568H92.3461C92.7088 26.568 93.0715 26.5947 93.4341 26.648C93.8075 26.6907 94.1435 26.792 94.4421 26.952C94.7408 27.1013 94.9808 27.32 95.1621 27.608C95.3541 27.8853 95.4501 28.264 95.4501 28.744C95.4501 29 95.4075 29.24 95.3221 29.464C95.2475 29.688 95.1355 29.88 94.9861 30.04C94.8475 30.2 94.6715 30.3387 94.4581 30.456C94.9488 30.5947 95.3008 30.84 95.5141 31.192C95.7381 31.5333 95.8501 31.9493 95.8501 32.44C95.8501 32.8987 95.7595 33.2933 95.5781 33.624C95.3968 33.944 95.1515 34.2053 94.8421 34.408C94.5435 34.6107 94.2075 34.76 93.8341 34.856C93.4715 34.952 93.1035 35 92.7301 35H88.5221ZM90.4901 33.304H92.4901C92.7568 33.304 92.9968 33.2773 93.2101 33.224C93.4235 33.1707 93.5941 33.0747 93.7221 32.936C93.8608 32.7973 93.9301 32.6053 93.9301 32.36C93.9301 32.136 93.8768 31.96 93.7701 31.832C93.6741 31.6933 93.5408 31.5973 93.3701 31.544C93.2101 31.48 93.0288 31.4427 92.8261 31.432C92.6235 31.4107 92.4261 31.4 92.2341 31.4H90.4901V33.304ZM90.4901 30.024H91.8181C91.9995 30.024 92.1915 30.0133 92.3941 29.992C92.5968 29.9707 92.7888 29.928 92.9701 29.864C93.1515 29.7893 93.3008 29.688 93.4181 29.56C93.5355 29.432 93.5941 29.2667 93.5941 29.064C93.5941 28.7867 93.5141 28.5893 93.3541 28.472C93.2048 28.3547 93.0181 28.28 92.7941 28.248C92.5808 28.216 92.3675 28.2 92.1541 28.2H90.4901V30.024ZM101.172 35.112C100.297 35.112 99.561 34.936 98.9636 34.584C98.3663 34.2213 97.913 33.7147 97.6036 33.064C97.2943 32.4133 97.1396 31.6613 97.1396 30.808C97.1396 29.9547 97.2996 29.2027 97.6196 28.552C97.9396 27.8907 98.409 27.3733 99.0276 27C99.6463 26.6267 100.398 26.44 101.284 26.44C101.934 26.44 102.51 26.552 103.012 26.776C103.524 27 103.934 27.3307 104.244 27.768C104.564 28.1947 104.766 28.728 104.852 29.368H102.932C102.804 28.9627 102.59 28.6693 102.292 28.488C102.004 28.296 101.652 28.2 101.236 28.2C100.702 28.2 100.276 28.3333 99.9556 28.6C99.6463 28.856 99.4223 29.1813 99.2836 29.576C99.145 29.9707 99.0756 30.3813 99.0756 30.808C99.0756 31.256 99.1503 31.6773 99.2996 32.072C99.449 32.456 99.6783 32.7653 99.9876 33C100.308 33.2347 100.718 33.352 101.22 33.352C101.625 33.352 101.988 33.2613 102.308 33.08C102.638 32.8987 102.852 32.6053 102.948 32.2H104.932C104.857 32.8507 104.638 33.3947 104.276 33.832C103.924 34.2587 103.476 34.5787 102.932 34.792C102.388 35.0053 101.801 35.112 101.172 35.112ZM106.397 35V26.568H108.349V29.944H109.693L111.885 26.568H114.093L111.389 30.552L114.189 35H111.933L109.837 31.672H108.349V35H106.397ZM118.941 35.112C118.077 35.112 117.33 34.936 116.701 34.584C116.082 34.232 115.602 33.7307 115.261 33.08C114.93 32.4293 114.765 31.6667 114.765 30.792C114.765 29.9067 114.93 29.144 115.261 28.504C115.602 27.8533 116.082 27.3467 116.701 26.984C117.33 26.6213 118.077 26.44 118.941 26.44C119.794 26.44 120.53 26.6213 121.149 26.984C121.767 27.3467 122.242 27.8587 122.573 28.52C122.903 29.1707 123.069 29.9387 123.069 30.824C123.069 31.688 122.903 32.4453 122.573 33.096C122.253 33.736 121.783 34.232 121.165 34.584C120.546 34.936 119.805 35.112 118.941 35.112ZM118.925 33.336C119.458 33.336 119.885 33.2187 120.205 32.984C120.535 32.7493 120.775 32.44 120.925 32.056C121.074 31.672 121.149 31.256 121.149 30.808C121.149 30.36 121.074 29.9387 120.925 29.544C120.775 29.1493 120.535 28.8347 120.205 28.6C119.885 28.3547 119.458 28.232 118.925 28.232C118.391 28.232 117.959 28.3547 117.629 28.6C117.298 28.8347 117.058 29.1493 116.909 29.544C116.759 29.9387 116.685 30.36 116.685 30.808C116.685 31.2667 116.759 31.688 116.909 32.072C117.058 32.456 117.298 32.7653 117.629 33C117.959 33.224 118.391 33.336 118.925 33.336ZM124.632 35V26.568H126.584V32.056C126.648 31.9387 126.728 31.8107 126.824 31.672C126.93 31.5333 127.021 31.4213 127.096 31.336L130.712 26.568H132.44V35H130.504V29.576C130.418 29.7147 130.328 29.848 130.232 29.976C130.146 30.0933 130.061 30.2053 129.976 30.312L126.408 35H124.632ZM128.664 25.704C127.757 25.704 127.042 25.496 126.52 25.08C126.008 24.6533 125.746 24.024 125.736 23.192H127.4C127.41 23.5867 127.528 23.8693 127.752 24.04C127.986 24.2107 128.296 24.296 128.68 24.296C129.064 24.296 129.368 24.2107 129.592 24.04C129.826 23.8693 129.949 23.5867 129.96 23.192H131.624C131.613 23.736 131.485 24.2 131.24 24.584C131.005 24.9573 130.669 25.24 130.232 25.432C129.794 25.6133 129.272 25.704 128.664 25.704ZM142.644 35.112C141.78 35.112 141.033 34.936 140.404 34.584C139.785 34.232 139.305 33.7307 138.964 33.08C138.633 32.4293 138.468 31.6667 138.468 30.792C138.468 29.9067 138.633 29.144 138.964 28.504C139.305 27.8533 139.785 27.3467 140.404 26.984C141.033 26.6213 141.78 26.44 142.644 26.44C143.497 26.44 144.233 26.6213 144.852 26.984C145.47 27.3467 145.945 27.8587 146.276 28.52C146.606 29.1707 146.772 29.9387 146.772 30.824C146.772 31.688 146.606 32.4453 146.276 33.096C145.956 33.736 145.486 34.232 144.868 34.584C144.249 34.936 143.508 35.112 142.644 35.112ZM142.628 33.336C143.161 33.336 143.588 33.2187 143.908 32.984C144.238 32.7493 144.478 32.44 144.628 32.056C144.777 31.672 144.852 31.256 144.852 30.808C144.852 30.36 144.777 29.9387 144.628 29.544C144.478 29.1493 144.238 28.8347 143.908 28.6C143.588 28.3547 143.161 28.232 142.628 28.232C142.094 28.232 141.662 28.3547 141.332 28.6C141.001 28.8347 140.761 29.1493 140.612 29.544C140.462 29.9387 140.388 30.36 140.388 30.808C140.388 31.2667 140.462 31.688 140.612 32.072C140.761 32.456 141.001 32.7653 141.332 33C141.662 33.224 142.094 33.336 142.628 33.336ZM152.379 35.112C151.803 35.112 151.291 35.0267 150.843 34.856C150.395 34.6853 150.006 34.4507 149.675 34.152C149.355 33.8427 149.088 33.4853 148.875 33.08C148.662 32.664 148.502 32.2107 148.395 31.72C148.288 31.2293 148.235 30.712 148.235 30.168C148.235 29.3573 148.267 28.616 148.331 27.944C148.406 27.2613 148.544 26.6587 148.747 26.136C148.96 25.6133 149.275 25.1707 149.691 24.808C150.118 24.4453 150.672 24.1733 151.355 23.992C151.782 23.864 152.219 23.768 152.667 23.704C153.115 23.6293 153.59 23.56 154.091 23.496C154.454 23.4533 154.747 23.416 154.971 23.384C155.206 23.352 155.403 23.32 155.563 23.288C155.734 23.256 155.888 23.2293 156.027 23.208V25.144C155.92 25.1867 155.803 25.2187 155.675 25.24C155.558 25.2613 155.43 25.2827 155.291 25.304C155.152 25.3147 155.014 25.3253 154.875 25.336C154.736 25.3467 154.598 25.3627 154.459 25.384C154.331 25.3947 154.203 25.4053 154.075 25.416C153.638 25.4587 153.195 25.5013 152.747 25.544C152.299 25.5867 151.883 25.6773 151.499 25.816C151.115 25.9547 150.8 26.1947 150.555 26.536C150.448 26.6747 150.352 26.8507 150.267 27.064C150.192 27.2773 150.134 27.5013 150.091 27.736C150.048 27.96 150.027 28.1893 150.027 28.424C150.262 28.0827 150.539 27.816 150.859 27.624C151.179 27.432 151.515 27.2933 151.867 27.208C152.23 27.1227 152.566 27.08 152.875 27.08C153.643 27.08 154.294 27.2507 154.827 27.592C155.36 27.9227 155.766 28.3813 156.043 28.968C156.32 29.544 156.459 30.2107 156.459 30.968C156.459 31.7787 156.294 32.4987 155.963 33.128C155.632 33.7467 155.163 34.232 154.555 34.584C153.947 34.936 153.222 35.112 152.379 35.112ZM152.395 33.384C152.864 33.384 153.254 33.2773 153.563 33.064C153.883 32.84 154.123 32.552 154.283 32.2C154.443 31.848 154.523 31.4693 154.523 31.064C154.523 30.6587 154.443 30.2907 154.283 29.96C154.123 29.6293 153.888 29.3627 153.579 29.16C153.27 28.9573 152.886 28.856 152.427 28.856C151.979 28.856 151.595 28.9627 151.275 29.176C150.955 29.3787 150.71 29.6507 150.539 29.992C150.368 30.3227 150.283 30.6853 150.283 31.08C150.283 31.4747 150.358 31.848 150.507 32.2C150.667 32.552 150.902 32.84 151.211 33.064C151.52 33.2773 151.915 33.384 152.395 33.384ZM157.224 35.016V33.256C157.459 33.256 157.661 33.2027 157.832 33.096C158.003 32.9787 158.147 32.824 158.264 32.632C158.403 32.3973 158.504 32.0987 158.568 31.736C158.632 31.3733 158.675 31.0053 158.696 30.632C158.728 30.152 158.749 29.672 158.76 29.192C158.781 28.7013 158.797 28.232 158.808 27.784C158.829 27.3253 158.84 26.92 158.84 26.568H165.176V35H163.224V28.296H160.648C160.637 28.648 160.621 29.0213 160.6 29.416C160.589 29.8107 160.573 30.2107 160.552 30.616C160.531 31.0107 160.493 31.3947 160.44 31.768C160.397 32.184 160.323 32.6053 160.216 33.032C160.12 33.4587 159.949 33.8427 159.704 34.184C159.448 34.504 159.128 34.7227 158.744 34.84C158.371 34.9573 157.864 35.016 157.224 35.016ZM169.693 35.112C169.32 35.112 168.957 35.0587 168.605 34.952C168.264 34.8453 167.954 34.6907 167.677 34.488C167.4 34.2747 167.181 34.0133 167.021 33.704C166.861 33.384 166.781 33.0107 166.781 32.584C166.781 32.04 166.888 31.5973 167.101 31.256C167.314 30.904 167.602 30.6373 167.965 30.456C168.338 30.2747 168.76 30.152 169.229 30.088C169.698 30.0133 170.189 29.976 170.701 29.976H172.349C172.349 29.6027 172.29 29.2827 172.173 29.016C172.056 28.7387 171.869 28.52 171.613 28.36C171.368 28.2 171.048 28.12 170.653 28.12C170.397 28.12 170.157 28.152 169.933 28.216C169.72 28.2693 169.533 28.36 169.373 28.488C169.224 28.6053 169.117 28.76 169.053 28.952H167.053C167.128 28.5147 167.277 28.1413 167.501 27.832C167.736 27.512 168.018 27.2507 168.349 27.048C168.69 26.8453 169.064 26.696 169.469 26.6C169.874 26.4933 170.285 26.44 170.701 26.44C171.522 26.44 172.189 26.6 172.701 26.92C173.224 27.24 173.608 27.6987 173.853 28.296C174.098 28.8933 174.221 29.6133 174.221 30.456V35H172.493L172.445 33.976C172.21 34.2747 171.938 34.5093 171.629 34.68C171.33 34.84 171.016 34.952 170.685 35.016C170.354 35.08 170.024 35.112 169.693 35.112ZM170.141 33.528C170.578 33.528 170.962 33.448 171.293 33.288C171.624 33.128 171.885 32.904 172.077 32.616C172.269 32.328 172.365 31.992 172.365 31.608V31.352H170.845C170.568 31.352 170.301 31.3627 170.045 31.384C169.789 31.3947 169.56 31.4373 169.357 31.512C169.165 31.576 169.01 31.6773 168.893 31.816C168.776 31.9547 168.717 32.152 168.717 32.408C168.717 32.6533 168.781 32.8613 168.909 33.032C169.037 33.192 169.208 33.3147 169.421 33.4C169.645 33.4853 169.885 33.528 170.141 33.528ZM179.797 35.112C178.922 35.112 178.186 34.936 177.589 34.584C176.991 34.2213 176.538 33.7147 176.229 33.064C175.919 32.4133 175.765 31.6613 175.765 30.808C175.765 29.9547 175.925 29.2027 176.245 28.552C176.565 27.8907 177.034 27.3733 177.653 27C178.271 26.6267 179.023 26.44 179.909 26.44C180.559 26.44 181.135 26.552 181.637 26.776C182.149 27 182.559 27.3307 182.869 27.768C183.189 28.1947 183.391 28.728 183.477 29.368H181.557C181.429 28.9627 181.215 28.6693 180.917 28.488C180.629 28.296 180.277 28.2 179.861 28.2C179.327 28.2 178.901 28.3333 178.581 28.6C178.271 28.856 178.047 29.1813 177.909 29.576C177.77 29.9707 177.701 30.3813 177.701 30.808C177.701 31.256 177.775 31.6773 177.925 32.072C178.074 32.456 178.303 32.7653 178.613 33C178.933 33.2347 179.343 33.352 179.845 33.352C180.25 33.352 180.613 33.2613 180.933 33.08C181.263 32.8987 181.477 32.6053 181.573 32.2H183.557C183.482 32.8507 183.263 33.3947 182.901 33.832C182.549 34.2587 182.101 34.5787 181.557 34.792C181.013 35.0053 180.426 35.112 179.797 35.112ZM187.006 35V28.296H184.222V26.568H191.758V28.296H188.958V35H187.006ZM192.85 35V26.568H194.802V32.056C194.866 31.9387 194.946 31.8107 195.042 31.672C195.149 31.5333 195.24 31.4213 195.314 31.336L198.93 26.568H200.658V35H198.722V29.576C198.637 29.7147 198.546 29.848 198.45 29.976C198.365 30.0933 198.28 30.2053 198.194 30.312L194.626 35H192.85Z" fill="#212121"/>
<defs>
<clipPath id="clip0_9001_9532">
<rect width="40" height="40" rx="15" fill="white"/>
</clipPath>
</defs>
</svg>
